<svg xmlns="http://www.w3.org/2000/svg" xmlns:xlink="http://www.w3.org/1999/xlink" viewBox="0 0 116.26 32"><defs><linearGradient id="a" x1="3.03" y1="3.03" x2="28.97" y2="28.97" gradientUnits="userSpaceOnUse"><stop offset="0" stop-color="#ff5722"/><stop offset="0.11" stop-color="#ff4a23"/><stop offset="0.19" stop-color="#ff3e24"/><stop offset="0.27" stop-color="#fe3b2a"/><stop offset="0.38" stop-color="#fc333a"/><stop offset="0.5" stop-color="#f92454"/><stop offset="0.62" stop-color="#f41179"/><stop offset="1" stop-color="#ff5f89"/></linearGradient></defs><rect width="32" height="32" rx="10.32" fill="url(#a)"/><path d="M41.52,22V11.89a1.8,1.8,0,0,1,2-2l7.83.19v3.31l-6.08-.14V22Z"/><path d="M52.34,15.92a5.78,5.78,0,0,1,1.74-4.43,6.34,6.34,0,0,1,4.55-1.63,6.57,6.57,0,0,1,4.57,1.57A5.46,5.46,0,0,1,65,15.68v1.18H55.89a2.06,2.06,0,0,0,.79,1.7,4.51,4.51,0,0,0,4.06.29,1.58,1.58,0,0,0,.85-1h3.78a3.78,3.78,0,0,1-.52,1.43,5.66,5.66,0,0,1-1.17,1.43,5.86,5.86,0,0,1-2,1.14,7.75,7.75,0,0,1-2.69.45,6.52,6.52,0,0,1-5-1.82A6.39,6.39,0,0,1,52.34,15.92Zm3.55-1.19H61.4a1.61,1.61,0,0,0-.65-1.28,3.47,3.47,0,0,0-2.12-.52,3.42,3.42,0,0,0-2.11.51A1.59,1.59,0,0,0,55.89,14.73Z"/><path d="M74.22,13.17a3.12,3.12,0,0,0-2.53,1,5.32,5.32,0,0,0-.88,3.42V22H67V10.1h3.78v1.44l-.71,2.13h1a5.1,5.1,0,0,1,1.54-2.76,4.27,4.27,0,0,1,3-1.05,4.53,4.53,0,0,1,3.61,1.49,6.26,6.26,0,0,1,1.29,4.23V22H76.68V16.18a3.73,3.73,0,0,0-.55-2.32A2.33,2.33,0,0,0,74.22,13.17Z"/><path d="M81.89,16.06a5.67,5.67,0,0,1,1.89-4.6,8.14,8.14,0,0,1,9.69,0,5.69,5.69,0,0,1,1.88,4.6,5.74,5.74,0,0,1-1.88,4.61,8.12,8.12,0,0,1-9.69,0A5.7,5.7,0,0,1,81.89,16.06Zm3.78,0a2.84,2.84,0,0,0,.78,2.19,3.1,3.1,0,0,0,2.18.72,3.05,3.05,0,0,0,2.15-.72,2.84,2.84,0,0,0,.78-2.19,2.82,2.82,0,0,0-.78-2.17,3.05,3.05,0,0,0-2.15-.72,3.1,3.1,0,0,0-2.18.72A2.82,2.82,0,0,0,85.67,16.06Z"/><path d="M94.88,22l4.54-5.51v-1L94.88,10.1h4.49l2.77,3.83,2.77-3.83h4.49l-4.54,5.48v1L109.4,22h-4.49l-2.77-3.85L99.37,22Z"/><path d="M113.64,22.28a2.43,2.43,0,0,1-1.88-.75,2.61,2.61,0,0,1-.7-1.88,2.54,2.54,0,0,1,.7-1.84,2.46,2.46,0,0,1,1.88-.74,2.61,2.61,0,1,1,0,5.21Z"/><path d="M9.72,22.28V12.13a2,2,0,0,1,.53-1.49,2,2,0,0,1,1.5-.5l7.83.19v3.31L13.5,13.5v8.78Z" fill="#fff"/><path d="M21.93,22.52A2.47,2.47,0,0,1,20,21.77a2.66,2.66,0,0,1-.69-1.88A2.6,2.6,0,0,1,20,18a2.78,2.78,0,0,1,3.78,0,2.48,2.48,0,0,1,.73,1.83,2.56,2.56,0,0,1-.73,1.88A2.53,2.53,0,0,1,21.93,22.52Z" fill="#fff"/></svg>