<svg xmlns="http://www.w3.org/2000/svg" xmlns:xlink="http://www.w3.org/1999/xlink" viewBox="0 0 32 32"><defs><linearGradient id="a" x1="3.03" y1="3.03" x2="28.97" y2="28.97" gradientUnits="userSpaceOnUse"><stop offset="0" stop-color="#ff5722"/><stop offset="0.11" stop-color="#ff4a23"/><stop offset="0.19" stop-color="#ff3e24"/><stop offset="0.27" stop-color="#fe3b2a"/><stop offset="0.38" stop-color="#fc333a"/><stop offset="0.5" stop-color="#f92454"/><stop offset="0.62" stop-color="#f41179"/><stop offset="1" stop-color="#ff5f89"/></linearGradient></defs><rect width="32" height="32" rx="10.32" fill="url(#a)"/><path d="M9.72,22.28V12.13a2,2,0,0,1,.53-1.49,2,2,0,0,1,1.5-.5l7.83.19v3.31L13.5,13.5v8.78Z" fill="#fff"/><path d="M21.93,22.52A2.47,2.47,0,0,1,20,21.77a2.66,2.66,0,0,1-.69-1.88A2.6,2.6,0,0,1,20,18a2.78,2.78,0,0,1,3.78,0,2.48,2.48,0,0,1,.73,1.83,2.56,2.56,0,0,1-.73,1.88A2.53,2.53,0,0,1,21.93,22.52Z" fill="#fff"/></svg>