<svg xmlns="http://www.w3.org/2000/svg" viewBox="0 0 116.26 32"><defs><linearGradient id="a" x1="3.03" y1="3.03" x2="28.97" y2="28.97" gradientUnits="userSpaceOnUse"><stop offset="0" stop-color="#ff5722"/><stop offset=".11" stop-color="#ff4a23"/><stop offset=".19" stop-color="#ff3e24"/><stop offset=".27" stop-color="#fe3b2a"/><stop offset=".38" stop-color="#fc333a"/><stop offset=".5" stop-color="#f92454"/><stop offset=".62" stop-color="#f41179"/><stop offset="1" stop-color="#ff5f89"/></linearGradient></defs><rect width="32" height="32" rx="10.32" fill="url(#a)"/><path d="M41.52 22V11.89a1.8 1.8 0 012-2l7.83.19v3.31l-6.08-.14V22zm10.82-6.08a5.78 5.78 0 011.74-4.43 6.34 6.34 0 014.55-1.63 6.57 6.57 0 014.57 1.57 5.46 5.46 0 011.8 4.25v1.18h-9.11a2.06 2.06 0 00.79 1.7 4.51 4.51 0 004.06.29 1.58 1.58 0 00.85-1h3.78a3.78 3.78 0 01-.52 1.43 5.66 5.66 0 01-1.17 1.43 5.86 5.86 0 01-2 1.14 7.75 7.75 0 01-2.69.45 6.52 6.52 0 01-5-1.82 6.39 6.39 0 01-1.65-4.56zm3.55-1.19h5.51a1.61 1.61 0 00-.65-1.28 3.47 3.47 0 00-2.12-.52 3.42 3.42 0 00-2.11.51 1.59 1.59 0 00-.63 1.29zm18.33-1.56a3.12 3.12 0 00-2.53 1 5.32 5.32 0 00-.88 3.42V22H67V10.1h3.78v1.44l-.71 2.13h1a5.1 5.1 0 011.54-2.76 4.27 4.27 0 013-1.05 4.53 4.53 0 013.61 1.49 6.26 6.26 0 011.29 4.23V22h-3.83v-5.82a3.73 3.73 0 00-.55-2.32 2.33 2.33 0 00-1.91-.69zm7.67 2.89a5.67 5.67 0 011.89-4.6 8.14 8.14 0 019.69 0 5.69 5.69 0 011.88 4.6 5.74 5.74 0 01-1.88 4.61 8.12 8.12 0 01-9.69 0 5.7 5.7 0 01-1.89-4.61zm3.78 0a2.84 2.84 0 00.78 2.19 3.1 3.1 0 002.18.72 3.05 3.05 0 002.15-.72 2.84 2.84 0 00.78-2.19 2.82 2.82 0 00-.78-2.17 3.05 3.05 0 00-2.15-.72 3.1 3.1 0 00-2.18.72 2.82 2.82 0 00-.78 2.17z" fill="#fff"/><path d="M94.88 22l4.54-5.51v-1l-4.54-5.39h4.49l2.77 3.83 2.77-3.83h4.49l-4.54 5.48v1L109.4 22h-4.49l-2.77-3.85L99.37 22zm18.76.28a2.43 2.43 0 01-1.88-.75 2.61 2.61 0 01-.7-1.88 2.54 2.54 0 01.7-1.84 2.46 2.46 0 011.88-.74 2.61 2.61 0 110 5.21zm-103.92 0V12.13a2 2 0 01.53-1.49 2 2 0 011.5-.5l7.83.19v3.31l-6.08-.14v8.78zm12.21.24a2.47 2.47 0 01-1.93-.75 2.66 2.66 0 01-.69-1.88A2.6 2.6 0 0120 18a2.78 2.78 0 013.78 0 2.48 2.48 0 01.73 1.83 2.56 2.56 0 01-.73 1.88 2.53 2.53 0 01-1.85.81z" fill="#fff"/></svg>