<svg xmlns="http://www.w3.org/2000/svg" viewBox="0 0 32 32"><defs><linearGradient id="a" x1="3.03" y1="3.03" x2="28.97" y2="28.97" gradientUnits="userSpaceOnUse"><stop offset="0" stop-color="#ff5722"/><stop offset=".11" stop-color="#ff4a23"/><stop offset=".19" stop-color="#ff3e24"/><stop offset=".27" stop-color="#fe3b2a"/><stop offset=".38" stop-color="#fc333a"/><stop offset=".5" stop-color="#f92454"/><stop offset=".62" stop-color="#f41179"/><stop offset="1" stop-color="#ff5f89"/></linearGradient></defs><rect width="32" height="32" rx="10.32" fill="url(#a)"/><path d="M9.72 22.28V12.13a2 2 0 01.53-1.49 2 2 0 011.5-.5l7.83.19v3.31l-6.08-.14v8.78zm12.21.24a2.47 2.47 0 01-1.93-.75 2.66 2.66 0 01-.69-1.88A2.6 2.6 0 0120 18a2.78 2.78 0 013.78 0 2.48 2.48 0 01.73 1.83 2.56 2.56 0 01-.73 1.88 2.53 2.53 0 01-1.85.81z" fill="#fff"/></svg>