<svg style="filter: blur(10px);" xmlns="http://www.w3.org/2000/svg" viewBox="0 0 200 200"><rect width="200" height="200" fill="#fff" opacity="0"/><path d="M16,145.61v-2.79H8.82v12.56H16v-2.79H12.14v-2.27H15.8V147.7H12.14v-2.09ZM21,146.83h-3v8.55h3v-4.53c0-1,.35-1.92,1.57-1.92,1.57,0,1.39,1.4,1.39,2.27v4.19h3V150c0-2.09-.87-3.48-3.15-3.48A3,3,0,0,0,21,147.9v-1.07Zm10.12,0H27.84l4.36,8.55h2.1l4.36-8.55H35.34l-2.1,4.36Zm11.34,0H39.36v8.55H42.5Zm-1.57-5.06a1.75,1.75,0,1,0,0,3.49,1.75,1.75,0,0,0,1.74-1.75A1.86,1.86,0,0,0,40.93,141.77Zm6.63,5.06H44.42v8.55h3.14V151.9c0-1.4.35-2.62,2.1-2.62a1.65,1.65,0,0,1,1.22.35v-3h-.52a3,3,0,0,0-2.79,1.57v-1.4Zm8.73-.35c-2.79,0-5.23,1.74-5.23,4.54,0,3,2.44,4.53,5.23,4.53S61.35,154,61.35,151C61.35,148.22,59.08,146.48,56.29,146.48Zm0,2.62A1.83,1.83,0,0,1,58.21,151a1.92,1.92,0,1,1-3.84,0A1.83,1.83,0,0,1,56.29,149.1Zm9.6-2.27H62.74v8.55h3.15v-4.53c0-1,.35-1.92,1.57-1.92,1.4,0,1.4,1.4,1.4,2.27v4.19h3V150c0-2.09-.87-3.48-3.14-3.48a3,3,0,0,0-2.79,1.4v-1.07Zm11,0H73.74v8.55h3.14v-4.19c0-.87,0-2.27,1.4-2.27,1.22,0,1.22,1.4,1.22,2.27v4.19h3.15v-4.19c0-.87,0-2.27,1.4-2.27,1.22,0,1.22,1.4,1.22,2.27v4.19h3.15V149.8c0-1.92-.88-3.31-3-3.31a3.44,3.44,0,0,0-3,1.57,3.37,3.37,0,0,0-5.58-.17l0-1.06Zm15.88,3a1.79,1.79,0,0,1,3.49,0Zm6.28,1.4c0-2.79-1.57-4.71-4.54-4.71-2.79,0-4.88,1.74-4.88,4.54,0,3,2.27,4.53,5.06,4.53,1.92,0,3.84-.87,4.36-2.79h-3a1.57,1.57,0,0,1-1.4.7,1.75,1.75,0,0,1-1.92-1.92H99v-.35Zm4.54-4.36h-3.15v8.55h3.15v-4.53c0-1,.35-1.92,1.56-1.92,1.4,0,1.4,1.4,1.4,2.27v4.19h3V150c0-2.09-.87-3.48-3.14-3.48a3,3,0,0,0-2.79,1.4v-1.07Zm11.34,2.44h1.57v-2.44h-1.57v-2.61h-3.14v2.61h-.88v2.44h.88v6.11h3.14Zm11.69-6.45H123.3v12.56h3.31Zm5.06,4h-3v8.55h3v-4.53c0-1,.35-1.92,1.57-1.92,1.57,0,1.4,1.4,1.4,2.27v4.19h3V150c0-2.09-.87-3.48-3.15-3.48a3,3,0,0,0-2.79,1.4v-1.07Zm14.66.18a7.21,7.21,0,0,0-2.79-.53c-1.92,0-3.84.87-3.84,3a2.15,2.15,0,0,0,1.92,2.27c1,.35,1.92.35,1.92,1.05,0,.53-.53.69-.88.69a5.86,5.86,0,0,1-2.44-.87l-1,2.1a7.83,7.83,0,0,0,3.48.87c1.92,0,4-.87,4-3.14,0-1.57-1.05-2.28-2.62-2.44-.35-.18-1.22-.18-1.22-.88,0-.35.52-.52.87-.52a4,4,0,0,1,1.57.36l1.05-1.93Zm5.24,2.26h1.74v-2.44h-1.74v-2.61h-3v2.61h-1v2.44h1v6.11h3Zm5.75-2.44h-3.14v8.55h3.14Zm-1.57-5.06a1.75,1.75,0,0,0,0,3.49,1.75,1.75,0,1,0,0-3.49Zm6.81,7.5h1.74v-2.44h-1.74v-2.61h-3v2.61h-1.05v2.44h1.05v6.11h3Zm2.62-2.44v5.07c0,2.79,2.09,3.66,4.71,3.66,2.44,0,4.53-.87,4.53-3.66v-5.07h-3.14v4.54c0,1-.18,1.92-1.4,1.92-1.4,0-1.57-.87-1.57-1.92v-4.54Zm14.48,2.44h1.74v-2.44h-1.74v-2.61h-3.15v2.61h-.87v2.44h.87v6.11h3.15Zm5.06.52a1.9,1.9,0,0,1,1.92-1.39,1.52,1.52,0,0,1,1.57,1.39Zm6.46,1.4a4.4,4.4,0,0,0-4.72-4.71,4.35,4.35,0,0,0-4.71,4.54c0,3,2.1,4.53,4.89,4.53,1.92,0,3.84-.87,4.36-2.79h-3a1.4,1.4,0,0,1-1.4.7,1.75,1.75,0,0,1-1.92-1.92h6.46v-.35ZM97.12,45.1a9.9,9.9,0,0,1,9.94-9.77,9.77,9.77,0,1,1,0,19.53A9.9,9.9,0,0,1,97.12,45.1Zm-38,21.11c-2.1-3.84-6.46-5.94-10.3-3.84-12.21,6.45-1.39,27.22,1,32.28C62.05,74.94,62.05,72,59.08,66.21ZM52.45,99.37c5.58,10.12,15,16.4,26,10.65,5.06-2.8,9.07-6.64,16.93-20.07,11.86-19,13.08-22,14.65-22.85,1.23-.7,2.27-.52,4.54,3.84,2.61,4.88,16.05,37,19.54,43.44,2.79,5.59,5.23,8,8.72,6.12,1.57-.88,3.67-3.15,10.47-14.66,1.23-1.92,4.89-7.5,7.51-10.12C164,92.58,173.2,84,173.2,84l4.54,7.68A54.73,54.73,0,0,0,162,103.41c-7.15,7.68-8,9.94-8,9.94-5.76,11.69-9.43,17.8-11.17,19.72a27.88,27.88,0,0,1-3.31,2.27c-1.75.88-2.44,1-3.49.7s-7-4.54-9.42-8.9c-6.12-11.69-9.77-25.48-16.06-37.52-2.44-4.19-4.54-4.89-6.28-3.84-1,.52-2.79,1.74-6.81,8.37-7.5,15.88-14.31,24.08-23,28.62-15.7,8.55-25.66-5.59-29.14-12.39a5.33,5.33,0,0,1-.88-1.75l-2.09,2.1a110.14,110.14,0,0,1-17.11,13.44L21.56,116s11.69-4.19,20.06-11.17a2.44,2.44,0,0,1,.7-.52c-3.66-8.2-7.15-18.5-7.15-25.82C37.26,67.43,44.25,55,51.75,51,59.08,47.19,65,48.76,69.2,56.79c2.44,4.54,2.62,9.43.35,13.27Z" fill-rule="evenodd"/></svg>