<svg style="filter: blur(10px);" xmlns="http://www.w3.org/2000/svg" viewBox="0 0 200 200"><rect width="200" height="200" fill="#fff" opacity="0"/><path d="M114.61,84.51a23.18,23.18,0,0,0-8.33-1.35c-4.78,0-9.92,1.16-13.62,4.3-4.08,3.44-5.76,8.88-5.76,14.08v19.23H97.24V102.18c0-2.61.14-5.33,1.84-7.46s4.7-2.83,7.45-2.83a8.88,8.88,0,0,1,7,3.13l7.47-6.14A19.45,19.45,0,0,0,114.61,84.51Z"/><path d="M72.64,103.86c0,5.71-3.59,9-9.26,9s-9.24-3.32-9.24-9V84.31H43.74v19.55A17.5,17.5,0,0,0,48,115.65c3.75,4.12,9.91,6,15.36,6,5.09,0,10.78-1.66,14.53-5.2A17.2,17.2,0,0,0,83,103.86V84.31H72.64Z"/><path d="M21.92,82.94a18.48,18.48,0,0,0-9.06,2.34V70.09H2.94v34.09c0,10.63,8,17.74,18.39,17.74,4.49,0,9.45-.79,13.15-3.49,5.15-3.77,6.9-10.44,6.9-16.54C41.38,90,33.32,82.94,21.92,82.94Zm0,30.07c-6.82,0-9-4.34-9-10.55h0c0-6.2,2.2-10.55,9-10.55s9,4.36,9,10.55C30.9,109,29,113,21.88,113Z"/><path d="M191.72,87.85c-3.7-3.44-8.94-4.77-13.88-4.77-7.42,0-14.54,3.13-17.56,10.33a21.93,21.93,0,0,0-1.82,8.2c0,4.89.87,9.92,3.92,13.88a16.65,16.65,0,0,0,13.42,6.29,17.46,17.46,0,0,0,10.89-3.44v2.43h10.36v-20A17.85,17.85,0,0,0,191.72,87.85Zm-13.88,25.2c-6.74,0-9-4.32-9-10.51s2.23-10.5,9-10.5c6.29,0,9,4.77,9,10.5S184.13,113.05,177.84,113.05Z"/><path d="M146.74,85.3A18.4,18.4,0,0,0,137.67,83a21.07,21.07,0,0,0-13.07,4.1c-4.43,3.51-6.39,9.33-6.39,14.85,0,13.07,6.91,20,20.06,20,10.47,0,18.38-7,18.38-17.72V70.09h-9.92V85.3Zm-2.2,25.18a9.22,9.22,0,0,1-6.82,2.55h0a9.54,9.54,0,0,1-6-1.74c-2.59-2-3-5.72-3-8.8,0-6.32,2.21-10.55,9-10.55s9,4.23,9,10.55C146.74,105.17,146.46,108.42,144.54,110.48Z"/></svg>