<svg xmlns="http://www.w3.org/2000/svg" viewBox="0 0 89.19 82.79"><path d="M81.94,41.32l4-4.67-1.73-1.24L87,32.88l-2.11-1.66,2.77-2.11-1.84-1.38,2.91-14.12L84.33.5,76.12,6.59,83.2,4.12,85.46,14l-4.79,23.3L60.7,18,51.39,25h0L60.7,18,56.09,13.6l20-7L84.33.5,56.27,11H32.92L4.86.5l0,0,0,0L.5,13.61,3.44,27.73,1.57,29.11l2.77,2.11L2.23,32.88,5,35.41,3.27,36.65l4,4.68-6,18.75L6.8,79.21l19.61-5.4h0l.06-.5-.06.5L37.31,79l-10.9-5.16,3.81,3.12L38,82.29H51.22L59,76.93l3.81-3.12L51.88,79h0l10.9-5.16,0-.13,0,.13h0l19.61,5.4L88,60.08,81.94,41.33ZM49.87,45.17ZM4.17,14,6.44,4.12l27.1,9.48L9,37.26Zm49.2,63.41-1.75-1h-14l-1.75,1L37.07,66.9l2.27-1.56.27.63L37.52,55.16h0l-.47-1-12.42-4,9.58-4.35,3.62,7.58,1.49-8.29L19.87,44.3l19.45.87h0l-1.49,8.29.54,1.14-.71-.22-.14.78L39.61,66l.4.93H49.2l.66-1.56,2.28,1.56,0,.32,9-7h0l-9,7ZM64.7,50.23l-1.76.56-1.48,1.5-.29,7.48h0l.29-7.48h0l-1.34-.61-9.4,3L55,45.8l8.91,4.05,5.45-5.55h0L63.85,36l0,0,0,0h0l5.47,8.27-5.46,5.55Z" fill="#f6851b" stroke="#f6851b" stroke-linecap="round" stroke-linejoin="round"/><polygon points="60.13 51.69 61.46 52.29 62.94 50.79 60.13 51.69" fill="#f6851b" stroke="#f6851b" stroke-linecap="round" stroke-linejoin="round"/><polygon points="37.05 54.18 37.52 55.16 37.66 54.38 37.05 54.18" fill="#f6851b" stroke="#f6851b" stroke-linecap="round" stroke-linejoin="round"/></svg>