<svg xmlns="http://www.w3.org/2000/svg" viewBox="0 0 91.25 55.81"><path d="M18.68,10.91a38.72,38.72,0,0,1,53.89,0l1.79,1.74a1.83,1.83,0,0,1,0,2.64l-6.12,6a1,1,0,0,1-1.35,0l-2.46-2.4a27,27,0,0,0-37.6,0l-2.64,2.57a1,1,0,0,1-1.35,0l-6.12-6a1.82,1.82,0,0,1,0-2.63ZM85.24,23.29l5.46,5.32a1.85,1.85,0,0,1,0,2.64l-24.59,24a1.94,1.94,0,0,1-2.7,0h0L46,38.22a.48.48,0,0,0-.67,0h0L27.84,55.27a1.93,1.93,0,0,1-2.69,0h0L.56,31.25a1.83,1.83,0,0,1,0-2.64L6,23.28a2,2,0,0,1,2.7,0l17.45,17a.46.46,0,0,0,.67,0h0l17.45-17a2,2,0,0,1,2.69,0h0l17.45,17a.48.48,0,0,0,.68,0l17.45-17A1.93,1.93,0,0,1,85.24,23.29Z" fill="#3c99fc"/></svg>