<svg xmlns="http://www.w3.org/2000/svg" viewBox="0 0 88.16 100.11"><path d="M44,100.11,8,90.1,0,0H88.16l-8,90.09-36.1,10Z" fill="#264de4"/><path d="M73.25,84.35l6.87-77h-36V92.45l29.17-8.1Z" fill="#2965f1"/><path d="M18.39,40.78l1,11h24.7v-11Z" fill="#ebebeb"/><path d="M16.41,18.42l1,11H44.08v-11Z" fill="#ebebeb"/><path d="M44.08,69.48l0,0L31.74,66.17,31,57.36H19.88l1.54,17.35L44,81l0,0V69.48Z" fill="#ebebeb"/><path d="M69.7,40.78l2-22.36H44v11H59.59l-1,11.31H44v11H57.63L56.35,66.17,44,69.49V81l22.63-6.28.17-1.87,2.59-29.09.27-3Z" fill="#fff"/></svg>