<svg xmlns="http://www.w3.org/2000/svg" viewBox="0 0 88.16 100.04"><polygon points="8.03 90.04 0 0 88.16 0 80.13 90.04 44.06 100.04 8.03 90.04" fill="#e34e26"/><polygon points="44.08 7.36 44.08 92.39 73.24 84.31 80.11 7.36 44.08 7.36" fill="#ef662a"/><polygon points="16.42 18.4 19.4 51.8 57.67 51.8 56.39 66.12 44.07 69.45 31.77 66.13 30.94 56.93 19.86 56.93 21.44 74.66 44.06 80.94 66.71 74.66 69.75 40.76 29.5 40.76 28.49 29.45 70.72 29.45 70.75 29.45 71.74 18.4 16.42 18.4" fill="#fff"/><polygon points="44.08 18.4 16.42 18.4 19.4 51.8 44.08 51.8 44.08 40.76 29.5 40.76 28.49 29.45 44.08 29.45 44.08 18.4" fill="#ebebeb"/><polygon points="44.08 69.45 44.07 69.45 31.77 66.13 30.94 56.93 19.86 56.93 21.44 74.66 44.06 80.94 44.08 80.94 44.08 69.45" fill="#ebebeb"/></svg>