<svg xmlns="http://www.w3.org/2000/svg" viewBox="0 0 88.16 100.04"><path fill="#e34e26" d="M8.03 90.04L0 0h88.16l-8.03 90.04-36.07 10-36.03-10z"/><path fill="#ef662a" d="M44.08 7.36v85.03l29.16-8.08 6.87-76.95H44.08z"/><path fill="#fff" d="M16.42 18.4l2.98 33.4h38.27l-1.28 14.32-12.32 3.33-12.3-3.32-.83-9.2H19.86l1.58 17.73 22.62 6.28 22.65-6.28 3.04-33.9H29.5l-1.01-11.31h42.26l.99-11.05H16.42z"/><path fill="#ebebeb" d="M44.08 18.4H16.42l2.98 33.4h24.68V40.76H29.5l-1.01-11.31h15.59V18.4zm0 51.05h-.01l-12.3-3.32-.83-9.2H19.86l1.58 17.73 22.62 6.28h.02V69.45z"/></svg>