<svg xmlns="http://www.w3.org/2000/svg" viewBox="0 0 89.19 82.79"><path d="M81.94 41.32l4-4.67-1.73-1.24L87 32.88l-2.11-1.66 2.77-2.11-1.84-1.38 2.91-14.12L84.33.5l-8.21 6.09 7.08-2.47L85.46 14l-4.79 23.3L60.7 18l-9.31 7h0l9.31-7-4.61-4.4 20-7L84.33.5 56.27 11H32.92L4.86.5h0L.5 13.61l2.94 14.12-1.87 1.38 2.77 2.11-2.11 1.66L5 35.41l-1.73 1.24 4 4.68-6 18.75L6.8 79.21l19.61-5.4h0l.06-.5-.06.5L37.31 79l-10.9-5.16 3.81 3.12L38 82.29h13.22L59 76.93l3.81-3.12L51.88 79h0l10.9-5.16v-.13.13h0l19.61 5.4L88 60.08l-6.06-18.75zm-32.07 3.85zM4.17 14l2.27-9.88 27.1 9.48L9 37.26zm49.2 63.41l-1.75-1h-14l-1.75 1 1.2-10.51 2.27-1.56.27.63-2.09-10.81h0l-.47-1-12.42-4 9.58-4.35 3.62 7.58 1.49-8.29-19.45-.8 19.45.87h0l-1.49 8.29.54 1.14-.71-.22-.14.78L39.61 66l.4.93h9.19l.66-1.56 2.28 1.56v.32l9-7h0l-9 7zM64.7 50.23l-1.76.56-1.48 1.5-.29 7.48h0l.29-7.48h0l-1.34-.61-9.4 3L55 45.8l8.91 4.05 5.45-5.55h0L63.85 36h0l5.47 8.27-5.46 5.55z" fill="#f6851b" stroke="#f6851b" stroke-linecap="round" stroke-linejoin="round"/><path fill="#f6851b" stroke="#f6851b" stroke-linecap="round" stroke-linejoin="round" d="M60.13 51.69l1.33.6 1.48-1.5-2.81.9zm-23.08 2.49l.47.98.14-.78-.61-.2z"/></svg>