<svg xmlns="http://www.w3.org/2000/svg" viewBox="0 0 200 200" filter="blur(10px)"><path d="M140.27 88.4a5.21 5.21 0 10-5.72-5.19 5.46 5.46 0 005.72 5.19M44 84.12a4.35 4.35 0 01-4.76 0c-1.12-.84-2.13-2-3.45-2.55-2.84-1.4-7-.33-9.11.42a16.32 16.32 0 00-6.24 3.68c-.55.54-1.75 2.15.95 3.45s11 4.35 13.19 5.16a17.94 17.94 0 017.21 4.66 9.08 9.08 0 011.67 7.4c-1 5.67-4.93 9.2-8.65 11.32a22.47 22.47 0 01-10 3.09 24.55 24.55 0 01-9.89-1.38 11.54 11.54 0 01-6-5.21 7.53 7.53 0 01-.2-7.13 6.28 6.28 0 016.39-3.16 4 4 0 013.15 2.27c.64 1.5 0 2.88.75 4.35 1.16 2.12 4.06 2.08 6.42 1.91 3.36-.23 7.37-2.65 8.73-5.55.51-1.1.7-2.06-.17-3-1.11-1.19-2.67-1.64-4.28-2.26-2.85-1.11-7.87-2.85-11.79-4.24-3.54-1.32-8-3.6-8.65-8-.68-4.58 2.14-8.45 5.86-10.82a37.33 37.33 0 0115.74-5.85c4.9-.59 10-.07 13.76 3.08a5.53 5.53 0 011.6 5.89A5.32 5.32 0 0144 84.13m140.11 17.36a5.23 5.23 0 00.09-5.11 3.61 3.61 0 00-3.65-1.7c-2.71.47-5 2-7.41 3.17s-4.87 3.54-7.63 1.91a5.05 5.05 0 01-2-4.88 1.22 1.22 0 00-.89-.29 3.78 3.78 0 00-3.21 1.84c-1.39 2.47-.8 5.92-.16 8.56a18.09 18.09 0 004.89 8.23 4 4 0 003.72.54 28.08 28.08 0 009.59-5 26.67 26.67 0 005.05-4.76 19.66 19.66 0 001.62-2.46m1.94 12.42c-6.61 6.09-13.28 8.41-16 9a13.52 13.52 0 01-8.08-.51 16.13 16.13 0 01-4.6-3.06 18.86 18.86 0 01-3.5-4.49c-.07-.12-.3-.09-.37 0a71.68 71.68 0 01-8 3 9.79 9.79 0 01-2.94.49 6.4 6.4 0 01-5.73-3c-.13-.23-.3-.29-.64-.17a47 47 0 01-8 2.71c-2.41.46-3.34.9-6.06-1.06a5.84 5.84 0 01-2.41-5c-.2-1.46.37-8.4.49-11.27a1.12 1.12 0 00-.66-1 9.41 9.41 0 00-2.71 0 .7.7 0 00-.71.53 55.19 55.19 0 01-5 13.14c-1.22 2-3 4.4-5.71 5-3.12.67-5.46-2.4-7-4.62s-2.9-4.15-3.2-4.57-.82-.65-1.56.29-4.72 8.1-5.52 8.67c-1.17.81-2 .06-2.58-.83-.45-.64-4-7.66-4.24-8.16s-.65-1.2-1.71.23c-2.1 2.67-4.67 6.67-6.17 8.07s-2.56 1.27-3.83.07a33.48 33.48 0 01-3.46-4.66c-.46-.64-.81-1.42-1.69-.38-1.35 1.59-3.69 4.3-6.26 5.47a8.94 8.94 0 01-9.13-1.91 12 12 0 01-3-7.19 23.11 23.11 0 011.51-9.78A19.81 19.81 0 0155.47 89c3.72-2.18 9.38-2.25 12.62-.06a4.36 4.36 0 012.2 4.4c-.37 1.55-1.22 3.28-2.8 3.78-2.22.53-4.15-1.17-6-1.34s-3.87 1.6-4.94 3.39a14.9 14.9 0 00-2.19 7.42 1.93 1.93 0 002.73 1.9 33.19 33.19 0 004-4.39c1.07-1.28 2-2.86 3.45-3.78a2.42 2.42 0 012.16.1c1.21.72 2.3 2.4 3.34 4s1.78 1 2.3.35c1.8-2.36 4.76-6.12 7.25-9.15.72-.8 1.67-1.66 2.82-1.38a3.32 3.32 0 011.73 1.48c1.15 1.84 2.17 3.78 3.32 5.64.13.2.59 1 1.42-.12 2.14-2.74 2.92-4.65 5-6.6a2.09 2.09 0 012-.29c.73.26 1.85 1.78 2.72 3.06s3.44 5.73 5.52 8.33a.74.74 0 00.83.27c.61-.27.79-.93 1.35-1.82a20 20 0 001.86-5.4c0-.13-.12-.26-.23-.3a5.86 5.86 0 01-3.29-5.7A5.5 5.5 0 01108 88a6.65 6.65 0 016.39.61 4.83 4.83 0 011.62 2.37.36.36 0 00.4.23A67.25 67.25 0 01125 91a4.79 4.79 0 013.69 2.64c.59 1.52.37 3.21.37 4.93-.13 2.56-.23 5.38-.41 7.75-.17 2.21 1.94 1.77 2.38 1.58a32.8 32.8 0 003.92-1.81.29.29 0 00.17-.29c0-4.16-.1-8.24.66-12.22a3.53 3.53 0 012.76-2.91 5.25 5.25 0 014.82 1 3.93 3.93 0 011 2.6c.06 1-.29 8-.26 12a1.86 1.86 0 00.77 1.7 2.84 2.84 0 002.18-.23 12.21 12.21 0 002.76-1.27.44.44 0 00.19-.51c-.59-3.66-.94-7.77 0-11.39a12.8 12.8 0 016.72-8.57 11.49 11.49 0 019.11-.35 12.79 12.79 0 013.41 2c.23.26.51.17.91 0 5-2.36 10.91-4.72 16.41-2.2A13 13 0 01194.28 97c0 3.75-1.65 10.87-8.25 17" fill="#145297"/></svg>