<svg xmlns="http://www.w3.org/2000/svg" viewBox="0 0 200 200" filter="blur(10px)"><path d="M174.17 64.22a2.83 2.83 0 102.83 2.83 2.83 2.83 0 00-2.83-2.83zm1 5.12a2.51 2.51 0 111.27-3.34 2.5 2.5 0 01-1.23 3.34zM64.07 115.4c-4.84 0-4.73-5.38-4.73-5.38l15.44-7.51c.6-4.41-2.19-15.33-13.68-8.45a22.41 22.41 0 00-11 18.87s.26 10.51 7.68 10.51 15.75-8.1 15.75-8.1l1.88-7.25-.55-.31s-5.95 7.62-10.79 7.62zm-1.33-16.49c1.15-.56 3.08-.74 3.16 2.23l-6.62 3.26a7.26 7.26 0 013.46-5.49z" fill="#7b002b"/><path d="M95.36 78.94c-3.92.29-7.14 2.62-9.59 6.42v-2.54h-.65a9.13 9.13 0 01-2.88 2.4l-7.42 3.19v.8c1.84.8 2.38 4.47 2.38 4.47v28.25c0 4.53-1.68 6.17-1.68 6.17v1l12.53-5.91v-.76c-2.38-1-2.28-4.11-2.28-4.11v-8.53a6.12 6.12 0 003.11.35c8.45-1.66 13.71-11.16 14-19.57.19-4.98-1.35-12.06-7.52-11.63zM93 97c0 3.59-1.56 7.27-5.07 8.19a5.24 5.24 0 01-2.16 0V92.05c.83-2.38 1.94-4.49 4.14-4.53 1.61 0 3.1 1.48 3.1 3.77V97zm64.07-26.76s-5.93 7.62-10.77 7.62-4.73-5.38-4.73-5.38L157 65c.61-4.41-2.18-15.37-13.67-8.47a22.4 22.4 0 00-11 18.87s.24 10.5 7.67 10.5 15.73-8.11 15.73-8.11l1.87-7.26zM145 61.38c1.15-.58 3.08-.75 3.14 2.22l-6.6 3.26a7.06 7.06 0 013.46-5.48z" fill="#7b002b"/><path d="M123.23 66.23c-3.92.27-7.16 2.6-9.6 6.4v-2.52H113a9.33 9.33 0 01-2.88 2.38l-7.39 3.17v.82c1.83.8 2.37 4.46 2.37 4.46v28.26c0 4.52-1.7 6.17-1.7 6.17v1l12.55-5.91v-.75c-2.4-1-2.28-4.13-2.29-4.14v-8.5a6.14 6.14 0 003.08.35c8.45-1.66 13.74-11.16 14-19.59.26-4.94-1.35-12.04-7.51-11.6zm-2.37 18.09c0 3.59-1.57 7.28-5.08 8.22a4.88 4.88 0 01-2.15 0v-13.2c.81-2.37 2-4.5 4.14-4.54 1.61 0 3.1 1.48 3.1 3.78v5.74zM72.63 49.47v28.45c0 5.78-2.09 7.41-2.09 7.41v1L87 78.58C96.74 74 104.78 64 104.78 51.67V47.5c0-11.22-10.73-13.44-18-10.09L69.8 45.19v.66c2.54-.28 2.83 3.62 2.83 3.62zm10.15-2.55c10.08-8.33 11.72 4 11.58 8.91-.17 7.11-2.73 15.55-11.58 17.85zm24.9-.61v17.11a9.42 9.42 0 01-1.37 5.34v1L118.37 64v-.55a4.33 4.33 0 01-1.86-3.45V46.79c1.89-4.67 7.08-5.56 7.08-5.56v-7.4c-4.21 0-7.12 6-7.12 6v-2.51l-.46-.46a7.54 7.54 0 01-2.15 1.79l-8.51 3.92a5.61 5.61 0 012.33 3.74zm51.46 8.47v17.11a9.47 9.47 0 01-1.36 5.34v1l12.06-5.76v-.55a4.23 4.23 0 01-1.84-3.44V55.25c1.92-4.67 7.09-5.56 7.09-5.56V42.3c-4.22 0-7.12 6-7.12 6v-2.51l-.46-.46a7.24 7.24 0 01-2.14 1.79L156.81 51a5.55 5.55 0 012.33 3.78z" fill="#7b002b"/><path d="M192.35 81.6c-.52-1.11-.66-.29-.66.31s-.66.74-1.27.74a1.3 1.3 0 00-1.18.8c-.29.53-2.22 1.19-3.79 1.72s-1.54 1.86-2.06 2.76-1.28 1.4-1.48 0-1.27 0-2.31.53-.58 1-1.7-.08-1.11-.08-1.11-.08.37.6-1 .6-3.47 2-4.15 2.37-1.49 1-1.86-.37-.67-.74-1.25-1.26-1-.6-2.3-.08-1 3-1 3.5-.46 1.54-.74.5-1.11-.82-2.17-1.11-3.77 1.72-4.3 2.22-.89 1.28-1.19.24-.37-2.9-1.18-2.59-1 .87-.46.95.69.53.69 1.78-2.59 1.4-3.71 1.48-1.19 1.25-2.3.87-1.56 1.41-1.93.75-1.34-.15-1.34-.15c-3.57.44-6.08 3.71-6.75 2.46s-.24.58-.69.58-.88.74-.88.74c-.37-1.18-1.41-.37-1.41-.37s-2.54 1.77-3.2 2.31a5.45 5.45 0 01-3.55.58.9.9 0 00-1.19.68s.14 1-.74.22-.82.08-1 1-.69 1.56-1.56 1.56-.83-1.11-.83-2-.37-.74-.66-.37-.6.29-1.27-.23.45-1.56 1.11-2 1-.83.29-1.11-.95.37-1.25.79-1.56.9-2.38 1.49-1.18 1.42-1.63 3-1 .68-1 .68-.51-1.27-.82-2.24-.67.37-1.17 1 .21 1.85.8 1.93.37-.32.74 1.25a1.43 1.43 0 01-1 1.86l-14.32 6.46v-2.15l-1.11.06c.15-1.25-.37-1.77-1-1.77s-.22.53-.22 1.11-1.7.6-3.26.29-2 2.09-2.14 2.67-.46 1.19-.83.74a1.1 1.1 0 00-1.48-.29c-.45.37-.82.83-1.11.24s-.66-.44-1.25.22-1.11.45-1.11-1-.37-.68-1 .51a1.88 1.88 0 001.11 2.6c.69.08.61 1 .9 1.63a.64.64 0 01-.38.9s-4.52 2.23-5.19 2.6-7.7 3.33-8.81 3.78-1.43.51-1.49-.45a2.76 2.76 0 01.75-2.54c.74-.58.74-.8-.46-1.4s-1.93 1.4-2.51 1.77-1.88 1.79-1.94.69-1.18.36-2.54.82-2.59 1.17-3.47.66-.81 1.56-1.26 1.62-.89-1-.89-1.62-.6-.61-1.13-.37 0 1.19.45 1.62.08 1-.45 1.35-1.62.87-1.91.22-1-.3-1.48.14-.74.67-2 .67a10 10 0 00-5.03 1.46 6.66 6.66 0 00-2 1.86v-.15c0-.81-.95 0-2.06.74a11.41 11.41 0 01-5 2.23c-2.07.22-1.41.59-4.29 1.48s-6.46 3.11-7.94 3.92-6.67 2.15-7.95 2.46a2.89 2.89 0 00-2.14 1.48 12.84 12.84 0 01-1.71 2.6c-.74.81.14 1.11.46.51a1 1 0 011.62-.29c.6.45-.74 1.93-.88 2.59a1.78 1.78 0 01-1.57 1.28c-.69 0-.82-1.28-.82-1.94s-.24-.66-.82-.08-2.38 2.31-3 2.89a2.16 2.16 0 00-.67 1.48c.37-.43 1.48-.5 1.48.16s-.15 1.32-.9 1.56-.66.95-1 1.64-1.11 1.85-1.49 2.43a6.49 6.49 0 01-1.48 1.33l.91.89s1.25.37 1.62-.08.89-.58 1.85-.51 2.38-1.05 3.12-1.79.16 1.35.16 1.35a2.59 2.59 0 001.93-.67c.59-.74.74.59 1.33.14s1 .07 1.4-.08a3.63 3.63 0 001.49-2.07c.28-1 1.93-.82 1.93-.82s1.27-2.22 1.48-2.75.74-.37 1.48-.29.29.74.29.74a10 10 0 01-1.93 1.48c-.59.23-.74 1.18-.74 1.55s1.05.9-.14 1.64-.08 1 .88.88a2.73 2.73 0 002.1-1.54c.21-.74 1.11-1 2-1s.89-.94 1.56-1 1.18 0 1.48-.46 1.64-.81 1.64-.81c16.81-6.54 33.26-16.65 33.12-16.85l.74.74c13.21-5.32 21.37-9.47 22.11-9.84s4-2.76 4.61-3.13 1.86-.08 3.1-.66 1.17-2.15 1.33-3 1.11-1.19 1.11.08 1 .88 1.54.58a24.4 24.4 0 015.71-1.4c1.64-.08 2.52-1.48 3.26-1.77s0-1 .61-1.56 1.61-.29 2.22-.15 1.7 1.11 2.07.65a13.1 13.1 0 011.86-1.32 3 3 0 01.68-1.48c2-.22 2.28.89 3.1.37a3.14 3.14 0 001.18-2.52c0-.82-1.11 1.19-1.48 1.48s-2.14-.07-3.49-.52-.06-1.19.31-1.94 1.32-1 1.54-.45 1.42.16 1.93-.29a11.12 11.12 0 013.79-1.2c.66 0 1.11.9.23 1.2s-1.06.74-1 1.26 1 1.33 1.12.37 2.22-2.09 2.88-2.67 3.49-.22 3.49-.22c-.58-2-.44-2.22 1.11-3.12a5.24 5.24 0 013.26-.58c0-.6 4.52-2.68 4.52-2.68l.46.66c1.48-.95 6-2.8 7.94-2.8a9.88 9.88 0 005.63-2.54 2 2 0 012.07-.37c.37-1 1.72-1.26 2.67-1.77a21.44 21.44 0 013.71-1.12c.74-.21.59-.74.67-1.48s.44-1.19 1.27-1a15.74 15.74 0 012.59 1.25 5.11 5.11 0 011.33-1.11c.82-.44 1.11-.88 1.11-2.15s1.48-1.09 2.38-1a21.92 21.92 0 005.11-.29c1.93-.29.45-.82.45-.82s-1.19-.43-2.44-1 .14-1.55.88-1.55a1.32 1.32 0 001.48-1.11c.16-.83 1.28 0 1.48-.67s.45-.67 1.19-.08a7 7 0 011.72 3c0 .44.8 1.56.87.29s1.19-3.1 1.48-3.92 2.3-.66 2.3-.66l-1-2.38c-.46-1 .28-.82 1-.82a13.87 13.87 0 004.75-.87c2.34-.67 1.54-2.38 1.01-3.5zM34.47 87.61v39.63a12.58 12.58 0 01-2.71 8v.76l19.64-9v-.73c-5.28 1.27-5.16-8.25-5.16-8.25V79.24l4.33-2.17c3.34-1.66 5.89 1.76 6 4.35a19.21 19.21 0 01-7.12 15.47v1.19a79.05 79.05 0 0010-5.16c6.67-4 9.6-12.19 9-19.24-.49-5.64-4.12-11.36-16.2-5.77l-21.56 9.88v.66c3.97 1.55 3.78 9.16 3.78 9.16zm141.18-20.42c-.27-.46-.3-.52-.69-.57a.76.76 0 00.06-.87c-.33-.65-.8-.53-1.23-.33l-1.27.58 1.29 2.85.37-.17-.56-1.21.93-.43c.59-.27.67.34.88.65l.21.33.45-.21c-.26-.19-.25-.27-.44-.62zm-1.27-.47l-.89.41-.45-1 .92-.41c.22-.1.59-.22.76.31.13.4-.09.57-.34.69z" fill="#7b002b"/></svg>