<svg xmlns="http://www.w3.org/2000/svg" viewBox="0 0 200 200" filter="blur(10px)"><path d="M114.61 84.51a23.18 23.18 0 00-8.33-1.35c-4.78 0-9.92 1.16-13.62 4.3-4.08 3.44-5.76 8.88-5.76 14.08v19.23h10.34v-18.59c0-2.61.14-5.33 1.84-7.46s4.7-2.83 7.45-2.83a8.88 8.88 0 017 3.13l7.47-6.14a19.45 19.45 0 00-6.39-4.37zm-41.97 19.35c0 5.71-3.59 9-9.26 9s-9.24-3.32-9.24-9V84.31h-10.4v19.55A17.5 17.5 0 0048 115.65c3.75 4.12 9.91 6 15.36 6 5.09 0 10.78-1.66 14.53-5.2A17.2 17.2 0 0083 103.86V84.31H72.64zM21.92 82.94a18.48 18.48 0 00-9.06 2.34V70.09H2.94v34.09c0 10.63 8 17.74 18.39 17.74 4.49 0 9.45-.79 13.15-3.49 5.15-3.77 6.9-10.44 6.9-16.54 0-11.89-8.06-18.95-19.46-18.95zm0 30.07c-6.82 0-9-4.34-9-10.55 0-6.2 2.2-10.55 9-10.55s9 4.36 9 10.55C30.9 109 29 113 21.88 113zm169.8-25.16c-3.7-3.44-8.94-4.77-13.88-4.77-7.42 0-14.54 3.13-17.56 10.33a21.93 21.93 0 00-1.82 8.2c0 4.89.87 9.92 3.92 13.88a16.65 16.65 0 0013.42 6.29 17.46 17.46 0 0010.89-3.44v2.43h10.36v-20a17.85 17.85 0 00-5.33-12.92zm-13.88 25.2c-6.74 0-9-4.32-9-10.51s2.23-10.5 9-10.5c6.29 0 9 4.77 9 10.5s-2.71 10.51-9 10.51zm-31.1-27.75a18.4 18.4 0 00-9.07-2.3 21.07 21.07 0 00-13.07 4.1c-4.43 3.51-6.39 9.33-6.39 14.85 0 13.07 6.91 20 20.06 20 10.47 0 18.38-7 18.38-17.72V70.09h-9.92V85.3zm-2.2 25.18a9.22 9.22 0 01-6.82 2.55 9.54 9.54 0 01-6-1.74c-2.59-2-3-5.72-3-8.8 0-6.32 2.21-10.55 9-10.55s9 4.23 9 10.55c.02 2.68-.26 5.93-2.18 7.99z"/></svg>