<svg xmlns="http://www.w3.org/2000/svg" viewBox="0 0 200 200" filter="blur(10px)"><path d="M16.23 80.45l2.18 1.17C31.54 88.92 45 95.93 61 99.26c11.2 2.08 24 4.16 35.26 4.2-26.87.92-54.8-7.81-78.54-20.56A23.2 23.2 0 0025.1 90a158.59 158.59 0 0025 10.58c.13-.46.41-1.37.53-1.82 23.6 9.6 47.25 7.07 71.35 5.89-.83.39-.27.7 0 1h.16-.16c.19.24.13.48-1.39.68 1.51-.2 1.57-.44 1.39-.68-23.9 3-47 2.31-70.86-4.75 36.87 11.51 74.76 8.61 110.8-4.75 2.06-.77 4.11-1.58 6.13-2.42a191.21 191.21 0 0117.28-10.28c-2.44-1.45 1.32-8.6-9.73-1.93-.19-.45-.54-1.32-.72-1.77 10.58-8 10.76-16.13-.11-12.15-12.64 4.4-29 12.72-45.18 15.12-11.67 2-23.3 2.8-34.91 3.5-16.13 1.21-33.34-2.86-48.8-7.86-5.7-1.9-14.11-8.48-17.24-9-2.15-.58-2.72.2-3 1.37A124.52 124.52 0 0052.33 84.1a110.72 110.72 0 0035.13 5.48 94.78 94.78 0 01-35.13-5.48 129.42 129.42 0 01-26.88-12.38c-.17 1-.35 2.11-1.34 2.58 0 0-2.61-1.81-3.91-2.72-6.33-1.81-7 1.81-5.5 5.83.44.92.92 2 1.53 3z" fill="#507299" fill-rule="evenodd"/><path d="M40 144.47l1.65-1.33c9.92-8.41 20.05-16.48 32.16-20.31 8.47-2.4 18.1-4.78 26.64-4.83-20.3-1.07-41.4 9-59.32 23.65a24.3 24.3 0 015.56-8.15 104.36 104.36 0 0118.87-12.18c.09.54.3 1.58.41 2.1 17.81-11 35.67-8.14 53.86-6.78-.62-.46-.2-.81 0-1.14h.12-.12c.15-.28.09-.56-1.06-.79 1.15.23 1.2.51 1.06.79-18-3.48-35.52-2.65-53.51 5.47 27.84-13.25 56.45-9.91 83.66 5.46 1.17.66 3.47 2 4.63 2.79a149.73 149.73 0 0013 11.83c-1.84 1.69 1 9.9-7.34 2.24-.15.49-.41 1.52-.54 2 8 9.22 8.13 18.56-.08 14-9.5-5.12-21.85-14.65-34.07-17.43-8.81-2.31-17.59-3.22-26.36-4-12.18-1.4-25.18 3.29-36.85 9.06-4.3 2.16-10.65 9.72-13 10.3-1.63.66-2.05-.24-2.27-1.58a86.75 86.75 0 0120.15-15.36A57.6 57.6 0 0193.78 134c-8.75-.57-17.8 1.63-26.52 6.3A88 88 0 0047 154.51c-.13-1.2-.27-2.44-1-3l-3 3.14c-4.77 2.08-5.25-2.08-4.15-6.7.32-1.05.68-2.27 1.15-3.5z" fill="#a2a96d" fill-rule="evenodd"/><path d="M74.93 49.23v1.76c-.06 10.51 8.42 21.36 20.6 22.32 8.25.75 17.48-3.61 20.88-10.74-3.81 8.43-14.84 13.18-24.69 10.24-9.94-2.55-17.43-12-17.66-21.87a11.16 11.16 0 00-.4 7.3 25.6 25.6 0 0013.78 15.28l.46-1c8.52 4.61 19.42 2.61 25.47-3.51 6.27-6.06 8.15-15.47 4.9-24.05.4.54.46.12.57-.07v-.13.13c.09-.18.24-.16.72.93-.48-1.09-.63-1.11-.72-.93a21.56 21.56 0 01-4.73 24.43c-6.28 6.14-16.81 8.24-25.93 4.45a25.06 25.06 0 0021.49-.77 21.65 21.65 0 0011.43-16.77 23.24 23.24 0 00-7.74-19.52A25.52 25.52 0 0092 30.58a25 25 0 00-5 1.44A28 28 0 0077 42.5c.9-.17 1.44 1.08 2.25 1.31s1.51-.51 4-3.63l.84.76c-2.16 3.27-1.57 6.18-.59 7.08 1.14 1 2.44.34 4.25-1.3a14.37 14.37 0 018-4.1 10.73 10.73 0 019.25 3.23 11.56 11.56 0 012 12.77 10 10 0 01-8.14 5.61A14.5 14.5 0 0188.19 61c-2.45-1.86-3.14-6.66-3.73-7.94a1.4 1.4 0 00-1.72-1 14.56 14.56 0 007.52 12.59c5.65 3 12.92 1.83 16.51-2.47-3.33 4.4-10.83 5.74-16.51 2.47a15 15 0 01-8.05-12.47 2 2 0 01-1.75 0 16 16 0 01.28-2.63c-.52-3.76-2.42-4-4.52-2.11-.45.57-.89 1.15-1.29 1.75z" fill="#e7ab5c" fill-rule="evenodd"/></svg>