<svg xmlns="http://www.w3.org/2000/svg" viewBox="0 0 200 200" filter="blur(10px)"><path d="M111.35 56.44H93.86a250.64 250.64 0 00-46.79 6.14C5 74.87 3.88 92.33 3.88 92.33c-4.8 18 10.18 29.76 10.18 29.76l.76-3.08C-1.3 105.57 8.3 88.88 8.3 88.88 21.35 68.34 58 62.77 58 62.77c59.31-9.6 95.78 2.88 95.78 2.88l1.92-2.11c-5-1.92-20.53-4.61-20.53-4.61a178.65 178.65 0 00-23.83-2.49zM40.74 81.58s21.88-3.07 20.15 6c0 0 2.69 9.22-9.79 15.56 0 0 11.32 5.76-3.65 16.69 0 0-16.89 11.91-27.26 6.53 0 0-2.11.19-1-4.42 0 0 7.68-26.1 17.27-37.62 0 0 1.36-2.88 4.24-2.69zm3.26 10h4.22s4.23 5.37-8.83 8.83l.39-1.54s2.11-6.53 4.22-7.29zm-10 19s8.83-3.27 9.79 0c0 0 0 5.18-12.29 7.1zm47-40.7s9.41-9.79 11.9 0c0 0-2.88 8.64-10.36 6.72A6.2 6.2 0 0181 69.88zm4.61 21.69s9.21-15.74 17.85-16.7c0 0 16.5-3.07 12.08 7.49 0 0-2.3 13.44-12.66 14.58 0 0-5.76.39.19-6.91l5-7.3s-1.92-2.88-5.76 2.31c0 0-14.39 14.59-13.62 24.76 0 0 1 3.26 6.34-1.15 0 0 9-7.11 10.36-5 0 0 2.5 1.16-2.49 5.76 0 0-9 11.91-21.31 8.64 0 0-10.94-1 4-26.48zm38-15s.76-4.23 8.83-2.5c0 0 5 0-.59 5.76L128.64 87l16.7-14.4s7.29-.58 4 3.07l-18.21 19.16s-5.18 2.69 1.15 4.8l11.9 7.87s2.12 6-5.76 4.61c0 0-17.65-4.8-19.19-6.34l-4.8 9.8s-2.69 2.49-8.06.19a12.72 12.72 0 012.69-9.59s12.29-25.93 14.6-29.57zm27.25 4.21l7.3-12.66s2.49-3.07 6.91-.19c0 0 .77 1.73-1.92 3.84l-8.64 11.13s-6.67 3.87-3.6-2.09zm11.91 1.73s12.47-14.21 21.88-7.29c2.11 3.26 5.18 6.91-5.76 18.8-2.12 1.73-7.3 2.88-4.23-4 1.92-3.07 4.61-7.68 4.61-7.68s-.58-4.22-5 1c-4.42 6.15-6.15 9.4-2.88 16.31.77 3.84 4.8 17.28-10.36 16.51-4.61-1-14.78-2.5-13.82-10.56 1.35-1.15 1.54-5.19 7.68.77 1.73 1.53 6.34 5.18 7.87.57l-.76-2.88s-6.35-7.85.76-21.48zm28.59 1.73s17.46 20.15-9 40.12c-6.53 3.83-35.89 22.84-98.85 17.85-6.34-.39-18 .77-50.87-10l3.07-1s35.32 14.4 90.8 8.45c2.49-.19 45.87-3.84 62.76-25 0 0 11.91-13.82 1-28l1.15-2.5zm-129.9 17.31c1.16-3.46 7.11-17.46 17.08-22.26 3.84-1.92 6.72 3.26 4.8 6.91-1.53 3.07-10.17 27.83-11.9 33-1.34 3.65-2.88 9.8-7.68 5.38-2.68-2.7-7.86-4.81-2.3-23z" fill="#cc2132" fill-rule="evenodd"/></svg>