<svg xmlns="http://www.w3.org/2000/svg" viewBox="0 0 200 200" filter="blur(10px)"><path d="M186 109l1.93 2.74a1.42 1.42 0 01-.6 2.38c-.22.06-.34.16-.34.32v.35h10.51v-.39a.26.26 0 00-.17-.28l-.2-.06a5.68 5.68 0 01-2.89-2l-5.14-6.79 2.31-2.86a10.1 10.1 0 014.56-3.1c.22 0 .27-.14.27-.34v-.3h-6.64v.3a.38.38 0 00.21.36l.1.07c.44.27.82 1-.19 2.19 0 0-.72.91-1.76 2.16l-1.49-2a1.43 1.43 0 01.69-2.41c.21 0 .26-.14.26-.34v-.31h-10.3V99c0 .25.16.37.4.43a5.74 5.74 0 012.87 2l4.46 6.06L182 111c-1.5 1.68-2.78 3-3.83 3.18-.22 0-.33.16-.33.32v.35h6.09v-.38a.3.3 0 00-.17-.28 1 1 0 01-.18-.09c-.42-.29-.76-1 .23-2.16 0 0 1.2-1.65 2.23-2.9M53.33 95.21a3.46 3.46 0 00-3.43-1.85h-6v8.09h4.75c1.62 0 3.09-.3 3.37-1.52a.3.3 0 01.27-.26h.29v5.7h-.29c-.14 0-.22-.13-.28-.29-.38-1-1.83-1.56-3.36-1.56h-4.78V110c0 1.93.69 2.45 2.62 2.45h3.42a4.24 4.24 0 004-2.31.29.29 0 01.26-.17h.24v4.81h-18v-.32a.33.33 0 01.35-.32c1.09-.08 2-1.23 2-3v-16.6c0-1.76-.88-2.92-2-3-.24 0-.35-.16-.35-.32v-.31h17.41v4.47h-.23a.3.3 0 01-.26-.17zm11.94 19.6v-.32c0-.15-.1-.3-.35-.32-1.08-.08-2-1.24-2-3V90l-7 .94v.31c0 .16.11.3.35.32 1.09.08 2 1.23 2 3v16.64c0 1.77-.87 2.92-2 3-.24 0-.36.17-.35.32v.32zm92 0v-.32c0-.15-.11-.3-.35-.32-1.09-.08-2-1.24-2-3V90l-7 .94v.31c0 .16.11.3.35.32 1.08.08 2 1.23 2 3v16.64c0 1.77-.87 2.92-2 3-.24 0-.36.17-.35.32v.32zm-35.66-16.43V102c.73-1.33 2.16-3.91 5.22-3.91a3.86 3.86 0 011.33.24l-1.29 4.44h-2a2.93 2.93 0 00-3.21 2.87v5.54c0 1.76.87 2.92 2 3 .24 0 .36.17.35.32v.32h-9.17v-.32c0-.15.11-.3.35-.32 1.09-.08 2-1.24 2-3v-8.23c0-1.76-.74-2.82-2-3a.47.47 0 01-.36-.4v-.24l6.8-.94zm55.19 16.44h-4.25a1.64 1.64 0 01-1.88-1.66 8.48 8.48 0 01-5.64 2.12c-2.74.09-5.25-1.6-5.25-4.64V103c0-1.76-.88-2.9-2-3a.32.32 0 01-.35-.32v-.31l7.11-.94v10c0 4.47 4.41 4 6.1 2.73V103c0-1.76-.88-2.9-2-3a.32.32 0 01-.35-.32v-.31l7.11-.94v12.76c0 1.38.27 2.8 1.36 3 .19 0 .32.11.32.37v.27zm-76.92-11.37v-4.2a16.62 16.62 0 00-6.37-1.11c-5.1 0-8.66 2.59-8.7 8.89 0 5 2.87 8.3 8.5 8.3a9.59 9.59 0 006.69-2.58 1.17 1.17 0 00.48-1.12v-1.17a9.81 9.81 0 01-5.48 1.86c-4.07 0-5.27-2.9-5.27-6.1 0-1.32.42-5.83 4.25-5.87 2.46 0 3.86.74 5.3 3.15.24.36.4.44.65.39v-.44zm37.92-3.14c-3 0-3.9 2.39-3.9 6.13 0 3 0 6.81 3.94 6.81s3.72-3.24 3.72-6.68c0-4-1-6.23-3.75-6.26zm-.26-2.25c3.94-.06 9.31.93 9.35 8.34 0 5.78-2.16 8.93-9.28 8.93-4.94 0-9-1.11-9-8.55s5.48-8.68 8.88-8.72zm-54.78 8.08H71.5c-.23 5.11 2.56 6.13 5.23 6.17a9.3 9.3 0 005.52-1.82v1.29a1.14 1.14 0 01-.22.6 9.09 9.09 0 01-7.16 3c-4.87 0-8.27-2.51-8.27-8.25 0-6.31 3.48-8.91 8.35-8.93 5 0 7.62 2.36 7.8 7.54v.45zM74.91 100c-1.55.08-3 .76-3.41 4.13h6.66c0-3.45-1.7-4.05-3.29-4.13zm38.27-.61v-.73H108v-4.8l-6.85 7.1h2.19v9.42c0 1.6.5 5 5 5a6.56 6.56 0 004.53-1.69.94.94 0 00.44-.87v-1.16c-2.87 1.61-5.32.6-5.32-2.53V101h3.67a1.57 1.57 0 001.51-1.57zM.58 90.9v23.92h23.93V90.9zm14.06 1.49c0 5.41-5.08 9.75-10.49 9.75H1.89a10.69 10.69 0 0110.65-10 10.32 10.32 0 012.1.21m0 20.94a10.32 10.32 0 01-2.1.21 10.7 10.7 0 01-10.65-10h2.26c5.41 0 10.49 4.33 10.49 9.75m1.44-20.55a10.68 10.68 0 010 20.15V92.78z" fill="#1d5b99"/></svg>